<svg width="17" height="45" viewBox="0 0 17 45" fill="none" xmlns="http://www.w3.org/2000/svg">
<path d="M8.0992 17.6875C7.55374 17.7855 7.04198 17.997 6.69877 18.4168C6.01848 19.2503 6.3004 20.4209 7.28407 20.8469C7.80808 21.0736 8.41789 21.0798 8.97255 21.2514C9.73558 21.4843 10.5384 21.6773 11.2218 22.0696C12.1442 22.6028 12.6621 23.4976 12.6743 24.6191C12.6927 26.4149 12.7019 28.2106 12.7203 30.0063C12.7448 32.2617 10.327 33.6162 8.34435 33.5426C6.93779 33.4905 5.42705 32.798 4.72225 31.5079C3.95002 30.0982 4.81111 27.7479 3.36778 26.7213C2.02252 25.7652 0.00921554 26.7948 0.00921561 28.4496C0.00921563 28.9644 0.00921425 29.4792 0.0245362 29.9971C0.0613089 31.4864 0.54242 32.8194 1.46786 33.9716C2.57411 35.3475 4.03888 36.1688 5.69978 36.6101C5.77026 36.6285 5.83768 36.6499 5.8959 36.6714L5.8959 42.08C5.8959 43.3762 6.94086 44.4365 8.21565 44.4365C9.49043 44.4365 10.5354 43.3762 10.5354 42.08L10.5354 36.7664C10.7591 36.7081 10.9613 36.656 11.1575 36.6039C12.0094 36.3864 12.8398 36.0616 13.5967 35.5988C14.2862 35.179 14.9052 34.6458 15.4139 34.0115C15.9226 33.3771 16.3026 32.6601 16.56 31.8909C16.75 31.324 16.8848 30.7387 16.9308 30.1412C16.9645 29.6846 16.9553 29.2218 16.9614 28.7652C16.9737 27.8 16.9829 26.8347 16.9921 25.8663C16.9921 25.566 16.9951 25.2657 16.9982 24.9654C17.0043 23.4669 16.5232 22.1278 15.656 20.9572C14.2801 19.1063 11.9573 17.8131 9.68348 17.6354C9.2085 17.5986 8.64159 17.5833 8.10839 17.6783L8.0992 17.6875Z" fill="white"/>
<path d="M8.89904 27.2543C9.4445 27.1563 9.95625 26.9387 10.2995 26.5127C10.9798 25.6639 10.6978 24.4688 9.71416 24.0367C9.19015 23.8069 8.58034 23.7977 8.02569 23.6261C7.26266 23.3871 6.45978 23.194 5.77643 22.7926C4.85404 22.2502 4.33617 21.3401 4.32391 20.194C4.30552 18.3645 4.29633 16.5351 4.27794 14.7057C4.25342 12.4104 6.67123 11.0284 8.65388 11.1019C10.0604 11.154 11.5712 11.8619 12.276 13.1735C13.0482 14.6107 12.1871 17.004 13.6305 18.0489C14.9757 19.0234 16.989 17.9754 16.989 16.29C16.989 15.7659 16.989 15.2389 16.9737 14.7149C16.9369 13.198 16.4558 11.8405 15.5304 10.6637C14.4241 9.26331 12.9593 8.42673 11.2985 7.9732C11.228 7.95482 11.1606 7.93337 11.1023 7.90885L11.1023 2.39908C11.1023 1.07833 10.0574 -0.000329928 8.78259 -0.000329872C7.50781 -0.000329816 6.46285 1.07833 6.46285 2.39908L6.46285 7.81386C6.23915 7.87208 6.0369 7.92724 5.84078 7.97934C4.98888 8.20304 4.15843 8.53399 3.40152 9.00284C2.71204 9.43186 2.09303 9.97425 1.58434 10.6178C1.07566 11.2613 0.695673 11.9967 0.438265 12.7782C0.248273 13.3543 0.11344 13.9518 0.0674742 14.5616C0.0337659 15.0274 0.0429573 15.4963 0.0368285 15.9651C0.024571 16.9488 0.0153783 17.9325 0.00618522 18.9161C0.00618524 19.2226 0.00312189 19.529 5.75162e-05 19.8324C-0.00607119 21.3585 0.475037 22.7221 1.34226 23.9142C2.71817 25.7988 5.04097 27.1164 7.31475 27.3003C7.78973 27.3401 8.35664 27.3524 8.88984 27.2574L8.89904 27.2543Z" fill="white"/>
</svg>
