<svg width="28" height="24" viewBox="0 0 28 24" fill="none" xmlns="http://www.w3.org/2000/svg">
<path d="M12.9551 20.7285C12.1868 20.7285 11.6465 20.6178 11.334 20.3965C11.028 20.1816 10.875 19.8594 10.875 19.4297C10.875 18.7982 11.0638 18.1374 11.4414 17.4473C11.819 16.7507 12.3659 16.0996 13.082 15.4941C13.7982 14.8822 14.6608 14.3874 15.6699 14.0098C16.6855 13.6257 17.8249 13.4336 19.0879 13.4336C20.3574 13.4336 21.4967 13.6257 22.5059 14.0098C23.5215 14.3874 24.3841 14.8822 25.0938 15.4941C25.8099 16.0996 26.3568 16.7507 26.7344 17.4473C27.1185 18.1374 27.3105 18.7982 27.3105 19.4297C27.3105 19.8594 27.1543 20.1816 26.8418 20.3965C26.5293 20.6178 25.9889 20.7285 25.2207 20.7285H12.9551ZM19.0977 11.6855C18.3945 11.6855 17.7467 11.4967 17.1543 11.1191C16.5618 10.735 16.0866 10.2207 15.7285 9.57617C15.3704 8.92513 15.1914 8.19596 15.1914 7.38867C15.1914 6.5944 15.3704 5.87826 15.7285 5.24023C16.0931 4.60221 16.5716 4.09766 17.1641 3.72656C17.7565 3.35547 18.401 3.16992 19.0977 3.16992C19.7943 3.16992 20.4388 3.35221 21.0312 3.7168C21.6237 4.08138 22.099 4.58268 22.457 5.2207C22.8151 5.85221 22.9941 6.56836 22.9941 7.36914C22.9941 8.18294 22.8151 8.91536 22.457 9.56641C22.099 10.2174 21.6237 10.735 21.0312 11.1191C20.4388 11.4967 19.7943 11.6855 19.0977 11.6855ZM2.4082 20.7285C1.78971 20.7285 1.34701 20.6081 1.08008 20.3672C0.819661 20.1328 0.689453 19.7943 0.689453 19.3516C0.689453 18.681 0.855469 17.9974 1.1875 17.3008C1.51953 16.5977 1.99479 15.9531 2.61328 15.3672C3.23828 14.7812 3.99023 14.3092 4.86914 13.9512C5.75456 13.5866 6.7474 13.4043 7.84766 13.4043C8.75911 13.4043 9.56641 13.5247 10.2695 13.7656C10.9792 14 11.6074 14.2995 12.1543 14.6641C11.627 15.0742 11.1615 15.5495 10.7578 16.0898C10.3607 16.6237 10.0482 17.1771 9.82031 17.75C9.59245 18.3229 9.47201 18.8698 9.45898 19.3906C9.44596 19.9115 9.56641 20.3574 9.82031 20.7285H2.4082ZM7.84766 11.9102C7.24219 11.9102 6.67904 11.7441 6.1582 11.4121C5.64388 11.0801 5.23047 10.6309 4.91797 10.0645C4.60547 9.49805 4.44922 8.86654 4.44922 8.16992C4.44922 7.47331 4.60547 6.84831 4.91797 6.29492C5.23698 5.74154 5.65365 5.30534 6.16797 4.98633C6.6888 4.66081 7.2487 4.49805 7.84766 4.49805C8.45312 4.49805 9.01302 4.65755 9.52734 4.97656C10.0482 5.28906 10.4648 5.72201 10.7773 6.27539C11.0898 6.82227 11.2461 7.44727 11.2461 8.15039C11.2461 8.85352 11.0898 9.49154 10.7773 10.0645C10.4648 10.6309 10.0514 11.0801 9.53711 11.4121C9.02279 11.7441 8.45964 11.9102 7.84766 11.9102Z" fill="#85958F"/>
</svg>
