<svg width="24" height="24" viewBox="0 0 24 24" fill="none" xmlns="http://www.w3.org/2000/svg">
<g clip-path="url(#clip0_1799_3338)">
<path d="M10.3203 4.378C10.8453 4.12896 11.4191 3.99976 12.0003 3.99976C12.5814 3.99976 13.1552 4.12896 13.6803 4.378L23.4283 8.99601C23.5981 9.07638 23.7418 9.20296 23.843 9.36125C23.9442 9.51953 23.9987 9.70313 24.0004 9.89099C24.0021 10.0789 23.9508 10.2634 23.8524 10.4234C23.7541 10.5835 23.6126 10.7126 23.4443 10.796L13.7443 15.608C13.2023 15.8772 12.6054 16.0173 12.0003 16.0173C11.3951 16.0173 10.7982 15.8772 10.2563 15.608L2.00026 11.512V16C2.00026 16.2652 1.8949 16.5196 1.70736 16.7071C1.51983 16.8946 1.26547 17 1.00026 17C0.73504 17 0.480686 16.8946 0.29315 16.7071C0.105613 16.5196 0.000256523 16.2652 0.000256523 16V9.95C-0.00957325 9.75222 0.0395405 9.55597 0.141372 9.38614C0.243204 9.2163 0.393169 9.08052 0.572257 8.99601L10.3203 4.378ZM4.00026 14.738V18C4.00028 18.1316 4.02627 18.2618 4.07672 18.3833C4.12717 18.5048 4.20109 18.6151 4.29426 18.708L4.29826 18.714L4.34426 18.756L4.46426 18.868C4.56426 18.9613 4.70892 19.086 4.89826 19.242C5.27226 19.548 5.81226 19.952 6.48626 20.358C7.82626 21.16 9.75426 22 12.0003 22C14.2463 22 16.1763 21.16 17.5143 20.358C18.2341 19.9258 18.9118 19.427 19.5383 18.868L19.6583 18.756L19.6903 18.724L19.7023 18.712L19.7043 18.71L19.7083 18.708C19.8011 18.615 19.8746 18.5045 19.9247 18.3831C19.9748 18.2616 20.0005 18.1314 20.0003 18V14.736L14.6323 17.4C13.8143 17.806 12.9135 18.0173 12.0003 18.0173C11.0871 18.0173 10.1862 17.806 9.36826 17.4L4.00026 14.738Z" fill="#85958F"/>
</g>
<defs>
<clipPath id="clip0_1799_3338">
<rect width="24" height="24" fill="white"/>
</clipPath>
</defs>
</svg>
